<svg xmlns="http://www.w3.org/2000/svg" version="1.1" xmlns:xlink="http://www.w3.org/1999/xlink" xmlns:svgjs="http://svgjs.dev/svgjs" width="1440" height="560" preserveAspectRatio="none" viewBox="0 0 1440 560">
    <g mask="url(&quot;#SvgjsMask1031&quot;)" fill="none">
        <rect width="1440" height="560" x="0" y="0" fill="rgba(131, 170, 211, 1)"></rect>
        <path d="M0,495.769C90.81,487.149,149.898,401.759,228.993,356.32C313.522,307.759,424.08,298.863,480.783,219.566C540.703,135.769,556.64,24.004,539.224,-77.529C522.02,-177.828,459.377,-263.999,385.783,-334.283C316.647,-400.31,228.016,-437.266,135.873,-462.741C44.935,-487.883,-51.789,-510.871,-140.912,-479.902C-228.426,-449.492,-293.677,-375.462,-342.281,-296.588C-386.198,-225.32,-392.734,-140.964,-401.101,-57.67C-409.127,22.229,-413.689,101.374,-389.963,178.09C-363.821,262.618,-327.344,346.737,-258.747,402.619C-186.207,461.713,-93.144,504.611,0,495.769" fill="#3a6ea4"></path>
        <path d="M1440 1022.611C1531.238 1024.72 1616.169 997.597 1702.82 968.956 1817.159 931.164 1967.051 932.434 2027.658 828.374 2087.484 725.655 2027.021 593.242 1986.797 481.383 1952.232 385.26 1875.8319999999999 317.185 1814.472 235.519 1747.655 146.589 1713.99 20.326000000000022 1610.241-19.788999999999987 1505.662-60.22500000000002 1392.17-0.8709999999999809 1284.561 30.625 1176.859 62.148000000000025 1047.0520000000001 71.83100000000002 982.819 163.851 918.914 255.401 966.169 379.80600000000004 962.923 491.407 960.0989999999999 588.511 923.184 689.241 964.988 776.931 1006.597 864.211 1098.99 912.563 1184.874 956.983 1264.482 998.1569999999999 1350.398 1020.54 1440 1022.611" fill="#dbe7f2"></path>
    </g>
    <defs>
        <mask id="SvgjsMask1031">
            <rect width="1440" height="560" fill="#ffffff"></rect>
        </mask>
    </defs>
</svg>